Coordinates
version=1
nRows=17
nColumns=24
inDegrees=yes

Units are S.I. units (second, meters, Newtons, ...)
Angles are in degrees.

endheader
time	pelvis_tilt	pelvis_list	pelvis_rotation	pelvis_tx	pelvis_ty	pelvis_tz	hip_flexion_r	hip_adduction_r	hip_rotation_r	knee_angle_r	ankle_angle_r	subtalar_angle_r	mtp_angle_r	hip_flexion_l	hip_adduction_l	hip_rotation_l	knee_angle_l	ankle_angle_l	subtalar_angle_l	mtp_angle_l	lumbar_extension	lumbar_bending	lumbar_rotation
      1.30833333	     -8.12572623	      2.65507008	     -3.21472184	      0.23444352	      0.98871339	      0.33888199	     23.01958783	     -4.25946527	     -2.58914532	    -65.61400829	    -12.75674975	      3.74034346	    -42.85379355	     12.90938475	      7.49084692	     -5.12509247	     -3.37905469	    -22.96999496	    -13.88100652	    -13.91133524	     22.51212338	     -2.94657593	      3.88615462
      1.31250000	     -8.10141809	      2.57942593	     -3.26229950	      0.23930470	      0.98921438	      0.33864615	     23.73511825	     -4.07533334	     -2.32762563	    -65.74527614	    -12.45926780	      3.70349282	    -42.85332129	     12.46720943	      7.45077336	     -5.01412154	     -3.21481288	    -22.87268189	    -13.83498984	    -13.88490685	     22.42348644	     -2.78204554	      3.81541789
      1.31666667	     -8.10782264	      2.51824443	     -3.35066843	      0.24426870	      0.98964919	      0.33862909	     24.46479300	     -3.85995878	     -2.01734455	    -65.91132259	    -11.53906605	      3.77132833	    -42.84920334	     12.06478474	      7.39718848	     -5.16308118	     -3.09359688	    -22.57816434	    -13.75480289	    -13.81569278	     22.40464274	     -2.76998021	      3.74514460
      1.32083333	     -8.12099267	      2.44645192	     -3.41621724	      0.24916120	      0.99005041	      0.33853860	     25.18223347	     -3.64227343	     -1.71199371	    -65.95316235	    -10.90523368	      3.96492543	    -42.85473836	     11.66341443	      7.34523523	     -5.15407922	     -2.94073797	    -22.37480809	    -13.65631273	    -13.74316712	     22.39245619	     -2.66315857	      3.66694328
      1.32500000	     -8.11120018	      2.36711700	     -3.46357483	      0.25407618	      0.99048613	      0.33841862	     25.84467166	     -3.42140854	     -1.43917848	    -65.91015588	    -10.33563308	      4.10330405	    -42.86084636	     11.23070521	      7.29325742	     -5.13745393	     -2.77919424	    -22.19572552	    -13.60495867	    -13.67615224	     22.33499878	     -2.56459571	      3.58820092
      1.32916667	     -8.10806363	      2.28509179	     -3.50987385	      0.25899572	      0.99089837	      0.33830855	     26.49271737	     -3.19232476	     -1.17033140	    -65.79334245	     -9.78870457	      4.24983352	    -42.86537398	     10.80157504	      7.23985067	     -5.11581939	     -2.61151417	    -22.01984176	    -13.57034173	    -13.61619320	     22.29816616	     -2.46464892	      3.50618187
      1.33333333	     -8.11458457	      2.21223881	     -3.54127908	      0.26387199	      0.99125722	      0.33813562	     27.13881050	     -2.98069660	     -0.93023565	    -65.57871004	     -9.49678421	      4.28461196	    -42.86508392	     10.37984694	      7.20773507	     -5.00992658	     -2.41889126	    -21.92377270	    -13.55622016	    -13.59288498	     22.23002450	     -2.32511094	      3.43704709
      1.33750000	     -8.10843265	      2.13132423	     -3.59984757	      0.26883217	      0.99163702	      0.33805960	     27.74042580	     -2.73673673	     -0.65979757	    -65.32709732	     -8.97579051	      4.39680482	    -42.86078952	      9.92594510	      7.15888375	     -4.97026304	     -2.21267322	    -21.74523202	    -13.55622503	    -13.56137240	     22.21915197	     -2.20541282	      3.35037182
      1.34166667	     -8.07643501	      2.02649196	     -3.60600587	      0.27373003	      0.99205338	      0.33800331	     28.27280891	     -2.47834974	     -0.40241619	    -65.03544583	     -8.17184102	      4.81905351	    -42.85888848	      9.47741151	      7.07904241	     -5.02747271	     -2.08160915	    -21.50419806	    -13.50688352	    -13.49934358	     22.11513367	     -2.17581972	      3.24292433
      1.34583333	     -8.09646260	      1.95591039	     -3.63012331	      0.27861571	      0.99233545	      0.33788555	     28.86508602	     -2.25266815	     -0.16959732	    -64.61668584	     -7.92201839	      4.87075807	    -42.85994260	      9.05684671	      7.04742737	     -4.91122298	     -1.85958465	    -21.42307015	    -13.50549306	    -13.47999998	     22.08758091	     -2.06340776	      3.17819211
      1.35000000	     -8.09570182	      1.87192226	     -3.66481887	      0.28358973	      0.99263862	      0.33779612	     29.39742937	     -2.00596074	      0.07231749	    -64.14860605	     -7.50948478	      4.98107381	    -42.85786298	      8.59851497	      7.00099739	     -4.84485352	     -1.63443217	    -21.27578590	    -13.52405614	    -13.45690849	     22.08873117	     -1.94676559	      3.09344223
      1.35416667	     -8.10002294	      1.78762964	     -3.68661298	      0.28852827	      0.99290876	      0.33770506	     29.91424768	     -1.76139465	      0.30748016	    -63.62720868	     -7.06241309	      5.15356193	    -42.85562636	      8.15253876	      6.95444329	     -4.79122065	     -1.41895051	    -21.12033862	    -13.53657285	    -13.43286847	     22.06153738	     -1.85391315	      3.00336611
      1.35833333	     -8.03623398	      1.68648747	     -3.67322269	      0.29342316	      0.99328992	      0.33759743	     30.31508993	     -1.51759822	      0.54164986	    -63.05250375	     -6.40470242	      5.60024287	    -42.86187029	      7.64701634	      6.89185714	     -4.77881986	     -1.23504264	    -20.92267654	    -13.49427189	    -13.37910496	     21.87684473	     -1.80181593	      2.84554442
      1.36250000	     -8.07660455	      1.61467496	     -3.68336042	      0.29833341	      0.99343840	      0.33750217	     30.83285992	     -1.28532821	      0.74478942	    -62.38508134	     -6.18315754	      5.60030942	    -42.86449979	      7.23939393	      6.85846723	     -4.69742333	     -1.00175646	    -20.83842812	    -13.52736284	    -13.36578888	     21.90311267	     -1.73208828	      2.78881259
      1.36666667	     -8.13006594	      1.54208504	     -3.65975022	      0.30314923	      0.99353524	      0.33745610	     31.34293164	     -1.05056335	      0.93763680	    -61.66051265	     -5.95654535	      5.59843579	    -42.86449614	      6.87250954	      6.81344793	     -4.63751346	     -0.81986527	    -20.75605130	    -13.57230196	    -13.35827584	     21.86662936	     -1.70314654	      2.74846596
      1.37083333	     -8.02974330	      1.41756018	     -3.67079950	      0.30827597	      0.99393734	      0.33727180	     31.60352970	     -0.79100345	      1.12781735	    -60.84876456	     -5.49484782	      5.85250367	    -42.87219042	      6.26565413	      6.74341616	     -4.60705556	     -0.54008932	    -20.53121022	    -13.58536216	    -13.32636125	     21.76450573	     -1.50144020	      2.55143725
      1.37500000	     -8.10281803	      1.37275072	     -3.65809526	      0.31304231	      0.99391389	      0.33722685	     32.10379062	     -0.58267280	      1.32542009	    -60.02441704	     -5.30748762	      5.81300998	    -42.87317678	      5.91757972	      6.72956369	     -4.52912273	     -0.33526815	    -20.47455589	    -13.61083131	    -13.32119596	     21.73535273	     -1.53634389	      2.52709097
